<svg xmlns="http://www.w3.org/2000/svg" xmlns:xlink="http://www.w3.org/1999/xlink" fill="none" version="1.1" width="128" height="128" viewBox="0 0 128 128"><defs><linearGradient x1="0.10751689970493317" y1="0.2732355296611786" x2="1.5861815354519826" y2="1.1293677533907784" id="master_svg0_2_0317"><stop offset="15.000000596046448%" stop-color="#F9D423" stop-opacity="0.4000000059604645"/><stop offset="100%" stop-color="#F23E2C" stop-opacity="1"/></linearGradient><filter id="master_svg1_1_02" filterUnits="objectBoundingBox" color-interpolation-filters="sRGB" x="0" y="0" width="1" height="1"><feFlood flood-opacity="0" result="BackgroundImageFix"/><feBlend mode="normal" in="SourceGraphic" in2="BackgroundImageFix" result="shape"/><feGaussianBlur in="BackgroundImageFix" stdDeviation="12"/><feComposite in2="SourceAlpha" operator="in" result="effect1_foregroundBlur"/><feBlend mode="normal" in="SourceGraphic" in2="effect1_foregroundBlur" result="shape"/></filter><linearGradient x1="0.15918369591236115" y1="0.11650128662586212" x2="0.8135533108117166" y2="0.8926150185244188" id="master_svg2_1_06"><stop offset="0%" stop-color="#FFFFFF" stop-opacity="0.25"/><stop offset="100%" stop-color="#FFFFFF" stop-opacity="0"/></linearGradient></defs><g><g><path d="M28,0C28,0,100,0,100,0C118.667,0,128,9.33333,128,28C128,28,128,100,128,100C128,118.667,118.667,128,100,128C100,128,28,128,28,128C9.33333,128,0,118.667,0,100C0,100,0,28,0,28C0,9.33333,9.33333,0,28,0C28,0,28,0,28,0Z" fill="#FFFFFF" fill-opacity="1"/></g><g><g><g><g transform="matrix(0.9359164237976074,-0.35222214460372925,0.3328685462474823,0.9429731965065002,-19.13662762171407,6.54728156240526)"><path d="M53.888,93.38131728515626C53.1577,94.10671728515625,52.8221,95.15581728515625,52.9885,96.18461728515625C52.9885,96.18461728515625,55.4952,110.40281728515626,55.4952,110.40281728515626C55.7068,111.60791728515625,55.2105,112.82751728515625,54.2263,113.52401728515625C53.262,114.24641728515624,51.979,114.33311728515625,50.9272,113.75521728515625C50.9272,113.75521728515625,38.4383,107.07951728515624,38.4383,107.07951728515624C38.0041,106.84251728515625,37.5219,106.71531728515626,37.028400000000005,106.70081728515625C37.028400000000005,106.70081728515625,36.2642,106.70081728515625,36.2642,106.70081728515625C35.9992,106.74131728515624,35.7398,106.82801728515625,35.5029,106.96101728515626C35.5029,106.96101728515626,23.011200000000002,113.66841728515625,23.011200000000002,113.66841728515625C22.393700000000003,113.98631728515625,21.6943,114.09911728515624,21.0092,113.98631728515625C19.3398,113.66271728515625,18.226010000000002,112.03281728515626,18.499560000000002,110.31331728515624C18.499560000000002,110.31331728515624,21.0092,96.09501728515625,21.0092,96.09501728515625C21.1755,95.05751728515625,20.8399,94.00261728515625,20.1096,93.26581728515626C20.1096,93.26581728515626,9.927363,83.15111728515625,9.927363,83.15111728515625C9.0757844,82.30441728515625,8.779705,81.03281728515626,9.168838,79.88551728515625C9.546691,78.74111728515625,10.51106,77.90591728515625,11.67563,77.71811728515625C11.67563,77.71811728515625,25.69,75.63441728515625,25.69,75.63441728515625C26.7559,75.52181728515625,27.6921,74.85711728515625,28.1715,73.87451728515624C28.1715,73.87451728515624,34.3468,60.89885728515625,34.3468,60.89885728515625C34.4934,60.60986728515625,34.6823,60.34399728515625,34.910799999999995,60.11858628515625C34.910799999999995,60.11858628515625,35.164500000000004,59.91629328515625,35.164500000000004,59.91629328515625C35.297,59.76601828515625,35.4494,59.64175228515625,35.6186,59.54060628515625C35.6186,59.54060628515625,35.9259,59.42501028515625,35.9259,59.42501028515625C35.9259,59.42501028515625,36.4053,59.22271728515625,36.4053,59.22271728515625C36.4053,59.22271728515625,37.5924,59.22271728515625,37.5924,59.22271728515625C38.6526,59.33542328515625,39.586,59.98565028515625,40.0738,60.95665728515625C40.0738,60.95665728515625,46.331,73.87451728515624,46.331,73.87451728515624C46.7821,74.81951728515625,47.6591,75.47551728515626,48.6714,75.63441728515625C48.6714,75.63441728515625,62.6857,77.71811728515625,62.6857,77.71811728515625C63.8701,77.89151728515625,64.8598,78.72961728515625,65.2518,79.88551728515625C65.6212,81.04441728515624,65.30250000000001,82.31591728515625,64.434,83.15111728515625C64.434,83.15111728515625,53.888,93.38131728515626,53.888,93.38131728515626C53.888,93.38131728515626,53.888,93.38131728515626,53.888,93.38131728515626Z" fill="url(#master_svg0_2_0317)" fill-opacity="1"/></g></g><g><g transform="matrix(0.9679535031318665,0.2511294186115265,-0.23646557331085205,0.97163987159729,5.719034389005515,-12.832872269863003)" filter="url(#master_svg1_1_02)"><path d="M109.92294868469239,60.4597C108.99714868469238,61.3826,108.57174868469238,62.7173,108.78264868469239,64.0262C108.78264868469239,64.0262,111.96034868469238,82.116,111.96034868469238,82.116C112.22844868469238,83.6493,111.59934868469239,85.2008,110.35184868469238,86.087C109.12934868469239,87.0062,107.50294868469238,87.1165,106.16964868469239,86.3811C106.16964868469239,86.3811,90.33804868469238,77.8877,90.33804868469238,77.8877C89.78764868469239,77.5863,89.17634868469239,77.4245,88.55074868469238,77.40610000000001C88.55074868469238,77.40610000000001,87.58204868469238,77.40610000000001,87.58204868469238,77.40610000000001C87.24604868469238,77.4576,86.91724868469238,77.5678,86.61694868469237,77.737C86.61694868469237,77.737,70.78184868469238,86.2708,70.78184868469238,86.2708C69.99894868469238,86.6753,69.11254868469238,86.8186,68.24394868469238,86.6753C66.12784868469238,86.2635,64.71584868469239,84.1897,65.06254868469239,82.002C65.06254868469239,82.002,68.24394868469238,63.9122,68.24394868469238,63.9122C68.45474868469239,62.5922,68.02944868469238,61.2502,67.10364868469239,60.3127C67.10364868469239,60.3127,54.19602868469238,47.4439,54.19602868469238,47.4439C53.11651698469238,46.3666,52.74119168469238,44.7488,53.23447668469238,43.289100000000005C53.713463684692385,41.833,54.935948684692384,40.770399999999995,56.41223868469238,40.5315C56.41223868469238,40.5315,74.17754868469238,37.8805,74.17754868469238,37.8805C75.52874868469237,37.7371,76.71554868469238,36.891400000000004,77.32324868469239,35.641400000000004C77.32324868469239,35.641400000000004,85.15144868469238,19.13254,85.15144868469238,19.13254C85.33724868469238,18.76486,85.57684868469238,18.42659,85.86624868469238,18.1398C85.86624868469238,18.1398,86.18794868469237,17.882431,86.18794868469237,17.882431C86.35604868469238,17.691238,86.54914868469238,17.533135,86.76354868469238,17.404448C86.76354868469238,17.404448,87.15314868469238,17.257375,87.15314868469238,17.257375C87.15314868469238,17.257375,87.76084868469238,17,87.76084868469238,17C87.76084868469238,17,89.26574868469238,17,89.26574868469238,17C90.60974868469239,17.143395,91.79284868469239,17.970674,92.41124868469238,19.20608C92.41124868469238,19.20608,100.34314868469238,35.641400000000004,100.34314868469238,35.641400000000004C100.91514868469238,36.843599999999995,102.0267486846924,37.6783,103.31004868469239,37.8805C103.31004868469239,37.8805,121.07544868469239,40.5315,121.07544868469239,40.5315C122.57674868469238,40.7521,123.83134868469239,41.8184,124.32824868469238,43.289100000000005C124.79644868469238,44.763400000000004,124.39254868469239,46.381299999999996,123.29164868469238,47.4439C123.29164868469238,47.4439,109.92294868469239,60.4597,109.92294868469239,60.4597C109.92294868469239,60.4597,109.92294868469239,60.4597,109.92294868469239,60.4597Z" fill="#F9D423" fill-opacity="0.6000000238418579"/><path d="M109.76994868469238,63.8671Q109.51454868469239,62.2821,110.62484868469238,61.172L110.62894868469238,61.168L123.98614868469238,48.163399999999996Q126.23584868469239,45.9919,125.27564868469238,42.969Q124.26914868469238,39.989999999999995,121.22304868469239,39.5424L103.46564868469238,36.892700000000005Q101.93084868469239,36.6509,101.24374868469238,35.2067L93.30544868469238,18.75847Q92.07174868469238,16.293711000000002,89.37184868469238,16.005644Q89.31894868469237,16.000003,89.26574868469238,16L89.26574868469238,16L87.76084868469238,16L87.76044868469239,16Q87.55834868469239,16.000066,87.37204868469237,16.078669L87.37084868469239,16.079181L86.78134868469238,16.328823L86.41034868469238,16.468905L86.40944868469239,16.469239Q86.32574868469239,16.500923,86.24904868469238,16.546961Q85.94654868469237,16.728455,85.69234868469238,16.9613895Q85.65484868469238,16.99574717,85.61834868469239,17.0312508Q85.55814868469238,17.0898977,85.50084868469239,17.151561L85.24154868469239,17.358947L85.24074868469239,17.359634Q85.19974868469238,17.392461,85.16254868469238,17.429392Q84.62034868469239,17.966504,84.25894868469238,18.68143Q84.25374868469238,18.69184,84.24864868469238,18.70237L84.24784868469239,18.70408L76.42384868469239,35.2041Q75.68964868469239,36.7144,74.07204868469239,36.8861Q74.05094868469239,36.8883,74.03004868469239,36.891400000000004L56.252438684692386,39.5443Q53.253995684692384,40.0297,52.287108684692384,42.968900000000005Q51.28062868469238,45.947199999999995,53.48998168469238,48.152L66.39204868469238,61.0153Q67.51274868469238,62.1502,67.25904868469239,63.739L64.07484868469238,81.8455Q63.75284868469238,83.8778,64.90304868469238,85.5674Q66.06174868469239,87.2694,68.05284868469238,87.6569L68.06694868469238,87.6597L68.08114868469238,87.662Q69.73854868469238,87.9355,71.25624868469238,87.1511L87.10784868469239,78.6082Q87.36604868469237,78.4627,87.66604868469238,78.40610000000001L88.53514868469239,78.40610000000001Q89.24644868469238,78.43,89.86534868469238,78.7689L105.68674868469239,87.2568Q108.43444868469238,88.7723,110.94204868469238,86.8943Q113.49284868469238,85.0749,112.94534868469239,81.943L109.76994868469238,63.8671ZM86.76354868469238,17.404448L87.15314868469238,17.257375L87.76084868469238,17L89.26574868469238,17C90.60974868469239,17.143395,91.79284868469239,17.970674,92.41124868469238,19.20608L100.34314868469238,35.641400000000004C100.91514868469238,36.843599999999995,102.0267486846924,37.6783,103.31004868469239,37.8805L121.07544868469239,40.5315C122.57674868469238,40.7521,123.83134868469239,41.8184,124.32824868469238,43.289100000000005C124.79644868469238,44.763400000000004,124.39254868469239,46.381299999999996,123.29164868469238,47.4439L109.92294868469239,60.4597C108.99714868469238,61.3826,108.57174868469238,62.7173,108.78264868469239,64.0262L111.96034868469238,82.116C112.22844868469238,83.6493,111.59934868469239,85.2008,110.35184868469238,86.087C109.12934868469239,87.0062,107.50294868469238,87.1165,106.16964868469239,86.3811L90.33804868469238,77.8877C89.78764868469239,77.5863,89.17634868469239,77.4245,88.55074868469238,77.40610000000001L87.58204868469238,77.40610000000001C87.24604868469238,77.4576,86.91724868469238,77.5678,86.61694868469237,77.737L70.78184868469238,86.2708C69.99894868469238,86.6753,69.11254868469238,86.8186,68.24394868469238,86.6753C66.12784868469238,86.2635,64.71584868469239,84.1897,65.06254868469239,82.002L68.24394868469238,63.9122C68.45474868469239,62.5922,68.02944868469238,61.2502,67.10364868469239,60.3127L54.19602868469238,47.4439C53.11651698469238,46.3666,52.74119168469238,44.7488,53.23447668469238,43.289100000000005C53.713463684692385,41.833,54.935948684692384,40.770399999999995,56.41223868469238,40.5315L74.17754868469238,37.8805C75.52874868469237,37.7371,76.71554868469238,36.891400000000004,77.32324868469239,35.641400000000004L85.15144868469238,19.13254C85.33724868469238,18.76486,85.57684868469238,18.42659,85.86624868469238,18.1398L86.18794868469237,17.882431C86.35604868469238,17.691238,86.54914868469238,17.533135,86.76354868469238,17.404448Z" fill-rule="evenodd" fill="url(#master_svg2_1_06)" fill-opacity="1"/></g></g></g></g></g></svg>